<?xml version="1.0" encoding="UTF-8" standalone="no"?>
<svg
   xmlns:dc="http://purl.org/dc/elements/1.1/"
   xmlns:cc="http://creativecommons.org/ns#"
   xmlns:rdf="http://www.w3.org/1999/02/22-rdf-syntax-ns#"
   xmlns:svg="http://www.w3.org/2000/svg"
   xmlns="http://www.w3.org/2000/svg"
   xmlns:sodipodi="http://sodipodi.sourceforge.net/DTD/sodipodi-0.dtd"
   xmlns:inkscape="http://www.inkscape.org/namespaces/inkscape"
   height="24"
   viewBox="0 0 24 24"
   width="24"
   id="svg2"
   version="1.1"
   inkscape:version="0.91 r13725"
   sodipodi:docname="my_bus.svg">
  <metadata
     id="metadata12">
    <rdf:RDF>
      <cc:Work
         rdf:about="">
        <dc:format>image/svg+xml</dc:format>
        <dc:type
           rdf:resource="http://purl.org/dc/dcmitype/StillImage" />
        <dc:title></dc:title>
      </cc:Work>
    </rdf:RDF>
  </metadata>
  <defs
     id="defs10" />
  <sodipodi:namedview
     pagecolor="#ffffff"
     bordercolor="#666666"
     borderopacity="1"
     objecttolerance="10"
     gridtolerance="10"
     guidetolerance="10"
     inkscape:pageopacity="0"
     inkscape:pageshadow="2"
     inkscape:window-width="1826"
     inkscape:window-height="1024"
     id="namedview8"
     showgrid="false"
     inkscape:zoom="34.458333"
     inkscape:cx="12"
     inkscape:cy="12"
     inkscape:window-x="78"
     inkscape:window-y="23"
     inkscape:window-maximized="0"
     inkscape:current-layer="svg2" />
  <path
     d="M0 0h24v24H0z"
     fill="none"
     id="path4" />
  <path
     style="opacity:1;fill:#d40000;fill-opacity:0.86750787;fill-rule:nonzero;stroke:none;stroke-width:4;stroke-linecap:round;stroke-linejoin:round;stroke-miterlimit:4;stroke-dasharray:none;stroke-dashoffset:0;stroke-opacity:1"
     d="M 5.2817413,21.9806 C 5.1557185,21.9294 5.0625897,21.86237 4.9446163,21.737955 4.6782179,21.457011 4.6763896,21.447523 4.664493,20.284279 L 4.6542722,19.284883 4.4774828,19.095894 C 4.1474634,18.743103 3.8980997,18.294984 3.7499543,17.788492 L 3.6857674,17.569044 3.6775673,12.15671 C 3.6703064,7.3642497 3.6745805,6.708554 3.7148863,6.4315911 3.9590516,4.7537972 5.196269,3.7740996 7.6033858,3.3524604 8.7997701,3.1428975 10.411399,3.0645631 12.660218,3.1066694 14.069526,3.133057 15.020739,3.2169593 15.932284,3.3952842 17.913011,3.7827724 19.035532,4.5655869 19.456151,5.8527295 19.641195,6.4189863 19.635057,6.190058 19.625167,12.15671 L 19.616195,17.569044 19.549651,17.801209 C 19.41383,18.275068 19.144462,18.755481 18.820278,19.102035 L 18.649233,19.284883 18.639012,20.284279 C 18.62697,21.46184 18.626448,21.464428 18.343288,21.751004 18.065009,22.032641 17.985674,22.05272 17.151147,22.05272 16.534672,22.05272 16.45638,22.047122 16.310737,21.99263 16.085922,21.908516 15.861241,21.695509 15.755517,21.466258 15.67228,21.285768 15.671202,21.276608 15.661458,20.666989 L 15.651601,20.050302 11.651754,20.050302 7.6519044,20.050302 7.6420473,20.666989 C 7.632303,21.276608 7.6312252,21.285768 7.5479882,21.466258 7.442264,21.695509 7.2175836,21.908516 6.9927686,21.99263 6.8466882,22.047286 6.7699302,22.052658 6.1440142,22.052031 5.4824663,22.051369 5.4491336,22.048608 5.2817413,21.9806 Z M 7.5463732,18.031886 C 7.8020164,17.965299 8.0514603,17.812472 8.2487711,17.601546 8.8115589,16.999924 8.7974877,16.087038 8.2164897,15.507255 7.6207752,14.912785 6.6695394,14.917116 6.0826087,15.51697 5.702496,15.905453 5.5634809,16.409123 5.6891836,16.942401 5.8093099,17.452023 6.2399368,17.893717 6.7505393,18.031035 6.9588744,18.087064 7.3329958,18.087464 7.5463732,18.031886 Z M 16.54051,18.032468 C 17.060821,17.896944 17.49265,17.458578 17.614322,16.942401 17.739779,16.410163 17.598545,15.899254 17.219964,15.515831 16.629765,14.918081 15.679832,14.914099 15.087016,15.50689 14.622729,15.971158 14.513551,16.654908 14.806398,17.264328 14.900336,17.459816 15.235196,17.800021 15.441971,17.910047 15.748953,18.073393 16.193282,18.122909 16.54051,18.032468 Z M 17.659007,9.5738813 17.659007,7.0490931 11.651754,7.0490931 5.6444983,7.0490931 5.6444983,9.5738813 5.6444983,12.098669 11.651754,12.098669 17.659007,12.098669 17.659007,9.5738813 Z"
     id="path4154"
     inkscape:connector-curvature="0" />
</svg>
